<?xml version="1.0" encoding="UTF-8"?>
<!DOCTYPE svg PUBLIC "-//W3C//DTD SVG 1.1//EN" "http://www.w3.org/Graphics/SVG/1.1/DTD/svg11.dtd">
<!-- Creator: CorelDRAW 2017 -->
<svg xmlns="http://www.w3.org/2000/svg" xml:space="preserve" width="23px" height="23px" version="1.1" style="shape-rendering:geometricPrecision; text-rendering:geometricPrecision; image-rendering:optimizeQuality; fill-rule:evenodd; clip-rule:evenodd"
viewBox="0 0 1.01 1.01"
 xmlns:xlink="http://www.w3.org/1999/xlink">
 <defs>
  <style type="text/css">
   <![CDATA[
    .fil0 {fill:#7688A1}
   ]]>
  </style>
 </defs>
 <g id="Слой_x0020_1">
  <metadata id="CorelCorpID_0Corel-Layer"/>
  <path class="fil0" d="M0 0.112l0 0.786c0,0.061 0.05,0.112 0.112,0.112l0.786 0c0.061,0 0.112,-0.051 0.112,-0.112l0 -0.786c0,-0.062 -0.051,-0.112 -0.112,-0.112l-0.786 0c-0.062,0 -0.112,0.05 -0.112,0.112zm0.362 0.25c0.038,-0.038 0.089,-0.059 0.143,-0.059 0.026,0 0.053,0.005 0.077,0.015 0.025,0.01 0.047,0.025 0.066,0.044 0.018,0.019 0.033,0.041 0.043,0.065 0.011,0.025 0.016,0.051 0.016,0.078 0,0.026 -0.005,0.053 -0.016,0.077 -0.01,0.025 -0.025,0.047 -0.043,0.066 -0.019,0.018 -0.041,0.033 -0.066,0.043 -0.024,0.011 -0.051,0.016 -0.077,0.016 -0.054,0 -0.105,-0.021 -0.143,-0.059 -0.038,-0.038 -0.059,-0.09 -0.059,-0.143 0,-0.054 0.021,-0.105 0.059,-0.143zm0.357 0.357c0.057,-0.057 0.089,-0.134 0.089,-0.214 0,-0.017 -0.002,-0.034 -0.005,-0.051l0.106 0 0 0.404c0,0.013 -0.006,0.026 -0.015,0.036 -0.01,0.009 -0.023,0.015 -0.036,0.015l-0.706 0c-0.028,0 -0.051,-0.023 -0.051,-0.051l0 -0.404 0.106 0c-0.003,0.017 -0.005,0.034 -0.005,0.051 0,0.08 0.032,0.157 0.089,0.214 0.056,0.057 0.134,0.089 0.214,0.089 0.08,0 0.157,-0.032 0.214,-0.089zm0.028 -0.426c-0.016,0 -0.03,-0.014 -0.03,-0.03l0 -0.122c0,-0.008 0.003,-0.015 0.009,-0.021 0.005,-0.006 0.013,-0.009 0.021,-0.009l0.121 0c0.008,0 0.016,0.003 0.022,0.009 0.005,0.006 0.009,0.013 0.009,0.021l0 0.122c0,0.008 -0.004,0.015 -0.009,0.021 -0.006,0.006 -0.014,0.009 -0.022,0.009l-0.121 0z"/>
 </g>
</svg>
