
<svg width="0" height="0" class="hidden" xmlns="http://www.w3.org/2000/svg">
  <symbol viewBox="0 0 14 14" id="star">
    <path d="M13.19 5.418l-3.968-.577-1.774-3.595a.502.502 0 00-.897 0L4.779 4.841l-3.967.577a.5.5 0 00-.277.853l2.87 2.799-.677 3.951a.5.5 0 00.725.527L7 11.682l3.548 1.866a.5.5 0 00.725-.527l-.678-3.951 2.87-2.799a.499.499 0 00-.276-.853z"></path>
  </symbol>
  <symbol viewBox="0 0 20 19" id="arrow-left">
    <path d="M18.75 8.003H3.925l4.538-5.45a1.252 1.252 0 00-1.925-1.6l-6.25 7.5a1.43 1.43 0 00-.113.187c0 .063 0 .1-.087.163a1.25 1.25 0 00-.088.45c.001.154.03.307.088.45 0 .062 0 .1.087.162.033.066.07.128.112.188l6.25 7.5a1.25 1.25 0 001.763.162 1.25 1.25 0 00.162-1.762l-4.537-5.45H18.75a1.25 1.25 0 000-2.5z"></path>
  </symbol>
  <symbol viewBox="0 0 20 19" id="arrow-right">
    <path d="M1.25 8.003h14.825l-4.537-5.45a1.251 1.251 0 111.925-1.6l6.25 7.5c.041.06.08.122.112.187 0 .063 0 .1.088.163.056.143.086.296.087.45a1.25 1.25 0 01-.087.45c0 .062 0 .1-.088.162-.033.066-.07.128-.113.188l-6.25 7.5a1.25 1.25 0 01-.962.45 1.25 1.25 0 01-.963-2.05l4.538-5.45H1.25a1.25 1.25 0 010-2.5z"></path>
  </symbol>
  <symbol viewBox="0 0 0.244 0.439" id="facebook">
    <path d="M.075.11v.042H0v.072h.075v.215h.082V.224h.074L.244.152H.157v-.05c0-.015.009-.026.017-.026h.07V0h-.07C.117 0 .075.049.075.11z"></path>
  </symbol>
  <symbol viewBox="0 0 1.01 1.01" id="instagram">
    <path d="M0 .112v.786c0 .061.05.112.112.112h.786A.113.113 0 001.01.898V.112A.112.112 0 00.898 0H.112A.112.112 0 000 .112zm.362.25a.201.201 0 01.329.065.191.191 0 010 .155.21.21 0 01-.043.066.21.21 0 01-.143.059.201.201 0 01-.202-.202C.303.451.324.4.362.362zm.357.357A.303.303 0 00.803.454h.106v.404a.055.055 0 01-.015.036.055.055 0 01-.036.015H.152A.051.051 0 01.101.858V.454h.106a.294.294 0 00.084.265.301.301 0 00.428 0zM.747.293a.03.03 0 01-.03-.03V.141C.717.133.72.126.726.12A.027.027 0 01.747.111h.121C.876.111.884.114.89.12a.033.033 0 01.009.021v.122A.033.033 0 01.89.284a.031.031 0 01-.022.009H.747z"></path>
  </symbol>
  <symbol viewBox="0 0 0.968 0.787" id="twitter">
    <path d="M.039.279a.198.198 0 00.159.195.195.195 0 01-.09.003.199.199 0 00.186.138A.395.395 0 010 .697.562.562 0 00.869.222V.196A.422.422 0 00.968.093a.422.422 0 01-.114.032.202.202 0 00.087-.11.41.41 0 01-.126.048.199.199 0 00-.338.181.56.56 0 01-.41-.207.2.2 0 00-.022.144c.012.05.042.093.084.121a.195.195 0 01-.09-.025v.002z"></path>
  </symbol>
  <symbol viewBox="0 0 512 512" id="sign-in">
    <path d="M416 448h-84c-6.6 0-12-5.4-12-12v-40c0-6.6 5.4-12 12-12h84c17.7 0 32-14.3 32-32V160c0-17.7-14.3-32-32-32h-84c-6.6 0-12-5.4-12-12V76c0-6.6 5.4-12 12-12h84c53 0 96 43 96 96v192c0 53-43 96-96 96zm-47-201L201 79c-15-15-41-4.5-41 17v96H24c-13.3 0-24 10.7-24 24v96c0 13.3 10.7 24 24 24h136v96c0 21.5 26 32 41 17l168-168c9.3-9.4 9.3-24.6 0-34z"></path>
  </symbol>
  <symbol viewBox="0 0 640 512" id="sign-up">
    <path d="M624 208h-64v-64c0-8.8-7.2-16-16-16h-32c-8.8 0-16 7.2-16 16v64h-64c-8.8 0-16 7.2-16 16v32c0 8.8 7.2 16 16 16h64v64c0 8.8 7.2 16 16 16h32c8.8 0 16-7.2 16-16v-64h64c8.8 0 16-7.2 16-16v-32c0-8.8-7.2-16-16-16zm-400 48c70.7 0 128-57.3 128-128S294.7 0 224 0 96 57.3 96 128s57.3 128 128 128zm89.6 32h-16.7c-22.2 10.2-46.9 16-72.9 16s-50.6-5.8-72.9-16h-16.7C60.2 288 0 348.2 0 422.4V464c0 26.5 21.5 48 48 48h352c26.5 0 48-21.5 48-48v-41.6c0-74.2-60.2-134.4-134.4-134.4z"></path>
  </symbol>
</svg>