<?xml version="1.0" encoding="UTF-8"?>
<!DOCTYPE svg PUBLIC "-//W3C//DTD SVG 1.1//EN" "http://www.w3.org/Graphics/SVG/1.1/DTD/svg11.dtd">
<!-- Creator: CorelDRAW 2017 -->
<svg xmlns="http://www.w3.org/2000/svg" xml:space="preserve" width="21px" height="17px" version="1.1" style="shape-rendering:geometricPrecision; text-rendering:geometricPrecision; image-rendering:optimizeQuality; fill-rule:evenodd; clip-rule:evenodd"
viewBox="0 0 0.968 0.787"
 xmlns:xlink="http://www.w3.org/1999/xlink">
 <defs>
  <style type="text/css">
   <![CDATA[
    .fil0 {fill:#7688A1}
   ]]>
  </style>
 </defs>
 <g id="Слой_x0020_1">
  <metadata id="CorelCorpID_0Corel-Layer"/>
  <path class="fil0" d="M0.039 0.279c0,0.046 0.016,0.091 0.045,0.126 0.029,0.036 0.069,0.06 0.114,0.069 -0.029,0.008 -0.06,0.009 -0.09,0.003 0.013,0.04 0.038,0.074 0.071,0.099 0.033,0.025 0.074,0.038 0.115,0.039 -0.068,0.054 -0.154,0.085 -0.247,0.085 -0.016,0 -0.032,-0.001 -0.047,-0.003 0.091,0.059 0.196,0.09 0.304,0.09 0.365,0 0.565,-0.303 0.565,-0.565 0,-0.009 0,-0.017 0,-0.026 0.038,-0.028 0.072,-0.063 0.099,-0.103 -0.037,0.016 -0.075,0.027 -0.114,0.032 0.041,-0.025 0.072,-0.064 0.087,-0.11 -0.039,0.023 -0.082,0.039 -0.126,0.048 -0.03,-0.032 -0.07,-0.053 -0.113,-0.06 -0.043,-0.007 -0.087,0 -0.126,0.021 -0.039,0.02 -0.069,0.053 -0.087,0.093 -0.018,0.04 -0.023,0.085 -0.012,0.127 -0.079,-0.004 -0.157,-0.024 -0.227,-0.06 -0.071,-0.036 -0.133,-0.086 -0.183,-0.147 -0.025,0.043 -0.033,0.095 -0.022,0.144 0.012,0.05 0.042,0.093 0.084,0.121 -0.033,-0.001 -0.063,-0.01 -0.09,-0.025l0 0.002z"/>
 </g>
</svg>
